REM DIRINDEX 1\2,1\3
REM DIRNAME folder01,folder02,folder03
TITLE ""
FILE "2000 phrasesTrack09.mp3" MP3
  TRACK 01 AUDIO
    TITLE "2:cjc143_0351"
    INDEX 01 00:00:00
  TRACK 02 AUDIO
    TITLE "0:"
    INDEX 01 00:00:66
  TRACK 03 AUDIO
    TITLE "2:cjc143_0352"
    INDEX 01 00:01:38
  TRACK 04 AUDIO
    TITLE "0:"
    INDEX 01 00:02:65
  TRACK 05 AUDIO
    TITLE "2:cjc143_0353"
    INDEX 01 00:03:37
  TRACK 06 AUDIO
    TITLE "0:"
    INDEX 01 00:05:03
  TRACK 07 AUDIO
    TITLE "2:cjc143_0354"
    INDEX 01 00:05:46
  TRACK 08 AUDIO
    TITLE "0:"
    INDEX 01 00:07:11
  TRACK 09 AUDIO
    TITLE "2:cjc143_0355"
    INDEX 01 00:07:54
  TRACK 10 AUDIO
    TITLE "0:"
    INDEX 01 00:09:42
  TRACK 11 AUDIO
    TITLE "2:cjc143_0356"
    INDEX 01 00:10:10
  TRACK 12 AUDIO
    TITLE "0:"
    INDEX 01 00:11:52
  TRACK 13 AUDIO
    TITLE "2:cjc143_0357"
    INDEX 01 00:12:20
  TRACK 14 AUDIO
    TITLE "0:"
    INDEX 01 00:13:57
  TRACK 15 AUDIO
    TITLE "2:cjc143_0358"
    INDEX 01 00:14:29
  TRACK 16 AUDIO
    TITLE "0:"
    INDEX 01 00:15:46
  TRACK 17 AUDIO
    TITLE "2:cjc143_0359"
    INDEX 01 00:16:18
  TRACK 18 AUDIO
    TITLE "0:"
    INDEX 01 00:18:05
  TRACK 19 AUDIO
    TITLE "2:cjc143_0360"
    INDEX 01 00:18:50
  TRACK 20 AUDIO
    TITLE "0:"
    INDEX 01 00:20:37
  TRACK 21 AUDIO
    TITLE "2:cjc143_0361"
    INDEX 01 00:21:06
  TRACK 22 AUDIO
    TITLE "0:"
    INDEX 01 00:22:46
  TRACK 23 AUDIO
    TITLE "2:cjc143_0362"
    INDEX 01 00:23:24
  TRACK 24 AUDIO
    TITLE "0:"
    INDEX 01 00:25:13
  TRACK 25 AUDIO
    TITLE "2:cjc143_0363"
    INDEX 01 00:25:56
  TRACK 26 AUDIO
    TITLE "0:"
    INDEX 01 00:27:20
  TRACK 27 AUDIO
    TITLE "2:cjc143_0364"
    INDEX 01 00:27:69
  TRACK 28 AUDIO
    TITLE "0:"
    INDEX 01 00:29:15
  TRACK 29 AUDIO
    TITLE "2:cjc143_0365"
    INDEX 01 00:29:58
  TRACK 30 AUDIO
    TITLE "0:"
    INDEX 01 00:31:08
  TRACK 31 AUDIO
    TITLE "2:cjc143_0366"
    INDEX 01 00:31:59
  TRACK 32 AUDIO
    TITLE "0:"
    INDEX 01 00:33:26
  TRACK 33 AUDIO
    TITLE "2:cjc143_0367"
    INDEX 01 00:34:00
  TRACK 34 AUDIO
    TITLE "0:"
    INDEX 01 00:35:45
  TRACK 35 AUDIO
    TITLE "2:cjc143_0368"
    INDEX 01 00:36:17
  TRACK 36 AUDIO
    TITLE "0:"
    INDEX 01 00:37:73
  TRACK 37 AUDIO
    TITLE "2:cjc143_0369"
    INDEX 01 00:38:43
  TRACK 38 AUDIO
    TITLE "0:"
    INDEX 01 00:39:74
  TRACK 39 AUDIO
    TITLE "2:cjc143_0370"
    INDEX 01 00:40:52
  TRACK 40 AUDIO
    TITLE "0:"
    INDEX 01 00:42:14
  TRACK 41 AUDIO
    TITLE "2:cjc143_0371"
    INDEX 01 00:42:59
  TRACK 42 AUDIO
    TITLE "0:"
    INDEX 01 00:44:07
  TRACK 43 AUDIO
    TITLE "2:cjc143_0372"
    INDEX 01 00:44:54
  TRACK 44 AUDIO
    TITLE "0:"
    INDEX 01 00:46:43
  TRACK 45 AUDIO
    TITLE "2:cjc143_0373"
    INDEX 01 00:47:13
  TRACK 46 AUDIO
    TITLE "0:"
    INDEX 01 00:49:35
  TRACK 47 AUDIO
    TITLE "2:cjc143_0374"
    INDEX 01 00:50:03
  TRACK 48 AUDIO
    TITLE "0:"
    INDEX 01 00:51:28
  TRACK 49 AUDIO
    TITLE "2:cjc143_0375"
    INDEX 01 00:51:71
  TRACK 50 AUDIO
    TITLE "0:"
    INDEX 01 00:53:13
  TRACK 51 AUDIO
    TITLE "2:cjc143_0376"
    INDEX 01 00:53:64
  TRACK 52 AUDIO
    TITLE "0:"
    INDEX 01 00:55:14
  TRACK 53 AUDIO
    TITLE "2:cjc143_0377"
    INDEX 01 00:55:57
  TRACK 54 AUDIO
    TITLE "0:"
    INDEX 01 00:57:62
  TRACK 55 AUDIO
    TITLE "2:cjc143_0378"
    INDEX 01 00:58:32
  TRACK 56 AUDIO
    TITLE "0:"
    INDEX 01 01:00:29
  TRACK 57 AUDIO
    TITLE "2:cjc143_0379"
    INDEX 01 01:00:74
  TRACK 58 AUDIO
    TITLE "0:"
    INDEX 01 01:02:01
  TRACK 59 AUDIO
    TITLE "2:cjc143_0380"
    INDEX 01 01:02:55
  TRACK 60 AUDIO
    TITLE "0:"
    INDEX 01 01:03:61
  TRACK 61 AUDIO
    TITLE "2:cjc143_0381"
    INDEX 01 01:04:37
  TRACK 62 AUDIO
    TITLE "0:"
    INDEX 01 01:05:73
  TRACK 63 AUDIO
    TITLE "2:cjc143_0382"
    INDEX 01 01:06:42
  TRACK 64 AUDIO
    TITLE "0:"
    INDEX 01 01:07:64
  TRACK 65 AUDIO
    TITLE "2:cjc143_0383"
    INDEX 01 01:08:31
  TRACK 66 AUDIO
    TITLE "0:"
    INDEX 01 01:10:08
  TRACK 67 AUDIO
    TITLE "2:cjc143_0384"
    INDEX 01 01:10:55
  TRACK 68 AUDIO
    TITLE "0:"
    INDEX 01 01:12:30
  TRACK 69 AUDIO
    TITLE "2:cjc143_0385"
    INDEX 01 01:13:02
  TRACK 70 AUDIO
    TITLE "0:"
    INDEX 01 01:14:31
  TRACK 71 AUDIO
    TITLE "2:cjc143_0386"
    INDEX 01 01:15:03
  TRACK 72 AUDIO
    TITLE "0:"
    INDEX 01 01:16:38
  TRACK 73 AUDIO
    TITLE "2:cjc143_0387"
    INDEX 01 01:17:08
  TRACK 74 AUDIO
    TITLE "0:"
    INDEX 01 01:18:37
  TRACK 75 AUDIO
    TITLE "2:cjc143_0388"
    INDEX 01 01:19:07
  TRACK 76 AUDIO
    TITLE "0:"
    INDEX 01 01:20:65
  TRACK 77 AUDIO
    TITLE "2:cjc143_0389"
    INDEX 01 01:21:35
  TRACK 78 AUDIO
    TITLE "0:"
    INDEX 01 01:23:69
  TRACK 79 AUDIO
    TITLE "2:cjc143_0390"
    INDEX 01 01:24:47
  TRACK 80 AUDIO
    TITLE "0:"
    INDEX 01 01:25:62
  TRACK 81 AUDIO
    TITLE "2:cjc143_0391"
    INDEX 01 01:26:34
  TRACK 82 AUDIO
    TITLE "0:"
    INDEX 01 01:27:46
  TRACK 83 AUDIO
    TITLE "2:cjc143_0392"
    INDEX 01 01:28:16
  TRACK 84 AUDIO
    TITLE "0:"
    INDEX 01 01:29:27
  TRACK 85 AUDIO
    TITLE "2:cjc143_0393"
    INDEX 01 01:29:74
  TRACK 86 AUDIO
    TITLE "0:"
    INDEX 01 01:31:30
  TRACK 87 AUDIO
    TITLE "2:cjc143_0394"
    INDEX 01 01:32:00
  TRACK 88 AUDIO
    TITLE "0:"
    INDEX 01 01:33:15
  TRACK 89 AUDIO
    TITLE "2:cjc143_0395"
    INDEX 01 01:33:58
  TRACK 90 AUDIO
    TITLE "0:"
    INDEX 01 01:34:73
  TRACK 91 AUDIO
    TITLE "2:cjc143_0396"
    INDEX 01 01:35:41
  TRACK 92 AUDIO
    TITLE "0:"
    INDEX 01 01:37:05
  TRACK 93 AUDIO
    TITLE "2:cjc143_0397"
    INDEX 01 01:37:48
  TRACK 94 AUDIO
    TITLE "0:"
    INDEX 01 01:38:61
  TRACK 95 AUDIO
    TITLE "2:cjc143_0398"
    INDEX 01 01:39:29
  TRACK 96 AUDIO
    TITLE "0:"
    INDEX 01 01:40:36
  TRACK 97 AUDIO
    TITLE "2:cjc143_0399"
    INDEX 01 01:41:10
  TRACK 98 AUDIO
    TITLE "0:"
    INDEX 01 01:42:49
  TRACK 99 AUDIO
    TITLE "2:cjc143_0400"
    INDEX 01 01:43:17
  TRACK 100 AUDIO
    TITLE "0:"
    INDEX 01 01:44:58
